<svg xmlns="http://www.w3.org/2000/svg" xmlns:xlink="http://www.w3.org/1999/xlink" viewBox="0 0 624.54 600.21"><defs><clipPath id="a"><ellipse cx="312.93" cy="351.69" rx="335.72" ry="204.35" transform="translate(-128.55 188.26) rotate(-28.02)" style="fill:none"/></clipPath></defs><ellipse cx="312.09" cy="352.13" rx="335.72" ry="204.35" transform="translate(-128.01 185.66) rotate(-27.73)" style="fill:#ff4a6e"/><polygon points="262.43 64.14 210.81 74.25 195.67 106.31 182.86 134.44 182.7 146.27 173.99 149.25 166.45 158.16 157.67 171.56 160.74 182.7 167.77 188.56 177.24 193.27 184.04 195.46 189.73 201.22 199.83 227.08 198.95 246.85 180.53 266.61 133.51 284.62 78.17 345.23 61.92 394.86 65 441.41 78.17 461.45 99.26 517.39 115.51 543.3 142.74 546.82 209.93 543.3 290.3 508.17 307.87 503.77 352.99 515.41 379.1 518.27 390.44 519.15 410.2 515.41 433.04 495.2 438.31 469.08 428.21 418.6 357.94 317.12 300.47 290.77 297.11 256.56 295.08 242.51 307.43 238.06 325.05 227.52 336.42 215.58 341.25 201.22 341.69 188.56 339.49 171.56 336.86 152.54 330.71 126.51 328.51 87.86 328.51 64.14 262.43 64.14" style="fill:#d08b5b"/><path d="M257.63,419.34l-11.57,41.48a1,1,0,0,0,.42,1.12l17.78,11.4a1,1,0,0,0,1.16,0l1.32-1a1,1,0,0,1,1.5.34l1.76,3.4a1,1,0,0,0,1.27.48l1.5-.58a1,1,0,0,1,1.35.71l1.55,6.73a1,1,0,0,0,2-.07L278,481a1,1,0,0,1,2-.06l.62,2.93a1,1,0,0,0,2-.08l.26-2a1,1,0,0,1,2,0h0a1,1,0,0,0,2,0l.1-.61a1,1,0,0,1,2-.05l.94,4.73a1,1,0,0,0,2,0c.74-3.1,1.66-6.43,2-5.37a66,66,0,0,1,.79,7.57,1,1,0,0,0,1.89.42l2.95-5.26a1,1,0,0,1,1.89.55l-.17,2.86a1,1,0,0,0,1.83.65l1.62-2.25a1,1,0,0,1,1.83.57l.16,6.89a1,1,0,0,0,1.69.73l5.08-4.55a1,1,0,0,1,1.64.45l.57,1.78a1,1,0,0,0,1.87.12l.43-.89a1,1,0,0,1,1.92.32l.31,2.81a1,1,0,0,0,1.9.36l1.42-2.7a1,1,0,0,1,1.84.12l1.31,3.46a1,1,0,0,0,1.83.13l2.74-5a1,1,0,0,1,1.61-.23l3.53,3.57a1.08,1.08,0,0,0,.78.3l15-.83a1,1,0,0,0,.38-1.93l-9.8-4.56a1,1,0,0,1-.48-.48l-3.71-7.74a1,1,0,0,0-1.62-.27l-2.78,2.77a1,1,0,0,1-1.69-.44l-1.19-4.17a1,1,0,0,0-1.42-.63L323.9,478a1,1,0,0,1-1.41-.58l-1.33-4a1,1,0,0,0-1.24-.65l-5,1.44a1,1,0,0,1-1.27-.75L312.19,467a1,1,0,0,0-1.58-.61l-4.51,3.23a1,1,0,0,1-1.58-.61l-1.39-6.28a1,1,0,0,0-1.41-.7L295,465.15a1,1,0,0,1-1.31-.43l-2.43-4.49a1,1,0,0,0-1.14-.5l-6.68,1.67a1,1,0,0,1-1-.27L278.33,457a1,1,0,0,0-1.09-.23L274,458.07a1,1,0,0,1-1.37-.77l-.31-1.85a1,1,0,0,1,1.69-.91l.31.29a1,1,0,0,0,1.29.06l2.18-1.64a1,1,0,0,1,1.62.69l.2,1.69a1,1,0,0,0,1.67.64l2.69-2.35a1,1,0,0,1,1.57,1.22l-.19.36a1,1,0,0,0,1.42,1.33l7-4.09a1,1,0,0,1,1.49,1.12l-.7,2.83a1,1,0,0,0,1.6,1.05l3.17-2.47a1,1,0,0,1,1.52,1.25l-.63,1.27a1,1,0,0,0,1.35,1.36c3.65-1.81,9.75-4.63,10.28-3.61s-.82,3.81-1.85,5.85a1,1,0,0,0,1.2,1.42l8.05-2.48a1,1,0,0,1,1.16,1.51l-1.88,3a1,1,0,0,0,1.24,1.47l6.73-2.81a1,1,0,0,1,1.31,1.35l-1.24,2.8a1,1,0,0,0,1.55,1.21c2.94-2.34,6.79-5.25,6.73-4.33a26.74,26.74,0,0,0,.76,5,1,1,0,0,0,1.23.76c5.22-1.23,12.3-1.57,18.25-1.58a1,1,0,0,0,.44-1.92l-9.89-4.86a1,1,0,0,1-.51-1.23l1.13-3.42a1,1,0,0,0-1.2-1.3l-8.43,2.11a1,1,0,0,1-1.2-1.3l.92-2.75a1,1,0,0,0-1.08-1.33l-6.13.68a1,1,0,0,1-1.11-1.15l.56-3.92a1,1,0,0,0-1.4-1.07l-6.9,3a1,1,0,0,1-1.14-.24l-3.92-4.25a1,1,0,0,0-1.18-.23L310.79,447a1,1,0,0,1-1.13-.18l-9.34-9a1,1,0,0,0-1.58.24l-1.38,2.48a1,1,0,0,1-1.4.38c-3.13-1.9-8.06-5.19-10.76-7.21a1,1,0,0,0-.77-.18l-4.93.82a1,1,0,0,1-1-.44l-.64-1a1,1,0,0,1,.79-1.58l1.95-.09a1,1,0,0,0,.3-.05l6.92-2.49a1,1,0,0,1,1.35.95v1.88a1,1,0,0,0,1.26,1l3.17-.79a1,1,0,0,1,1.26,1v.9a1,1,0,0,0,1.89.5l1.4-2.46a1,1,0,0,1,1.64-.17l5.13,5.87a1,1,0,0,0,1.64-.17l1.7-3a1,1,0,0,1,1.89.41l.53,5.84a1,1,0,0,0,1.66.68l3.85-3.29a1,1,0,0,1,1.67.76v3.84a1,1,0,0,0,1.6.82l3-2.17a1,1,0,0,1,1.56,1.1l-.57,2a1,1,0,0,0,1.43,1.18l8.46-4.26a1,1,0,0,1,1.44,1.12l-1.47,6.87a1,1,0,0,0,1.52,1.07l5.5-3.37a1,1,0,0,1,1.53,1l-.57,3.59a1,1,0,0,0,1.71.88l8.88-8.62a1,1,0,0,1,1.45,0l5.51,6a1,1,0,0,0,1.42.06c9.42-8.54,9.09-8.43,18.05-10.84a1,1,0,0,0-.17-2l-18-1.5a1,1,0,0,1-.5-.18,153.65,153.65,0,0,0-13.59-8.21.93.93,0,0,0-.59-.11l-16.79,2.09a.89.89,0,0,1-.23,0l-24.61-2.47a.86.86,0,0,1-.43-.15l-5.46-3.4a1,1,0,0,0-.54-.15c-8,.15-18.66-2.1-26.5-3.44h-.09l-12.13-.93A1,1,0,0,0,257.63,419.34Z" style="fill:#171717;fill-rule:evenodd"/><path d="M364.86,138.54a74.93,74.93,0,0,0-8,0s-4.38-7.49-8-8-16,0-16,0-14.25,1-15,2-6.53,4.3-7,6-22,2-22,2c-10.61-10.69-34.09-7.73-46-7-4.07,0-12.44,6-15,8-6.7.16-39,1.21-45,1v6c5.71-3.25,40.25-1,47-1-2.91,32.7,19.55,25.6,36.11,25.73,23.3.18,22.72-5.74,24.89-27.73.7-1.46,16-2.12,17-1-.6,31.93,2.69,24.61,29,24,24-4.82,18-.49,22-24l7-1S367.29,138.8,364.86,138.54Zm-89.51.38c3.07.25,4.77,2.14,6.37,3.63a7.62,7.62,0,0,1,2.27,4.17,22.72,22.72,0,0,1,.37,6.66c-1.64,14.73-2.38,13.83-15.33,13.55H254.61c-4.35-.25-14.17,1.64-16.23-6.33-1.32-6.34-2-14.75,2.75-19.66a8,8,0,0,1,4.81-2.21m105,21a5.47,5.47,0,0,1-4.75,1.93c-4.16.59-12.89,1.53-17.12,1.93-4,.05-10.33,2.36-14.26-1-3.8-5.18-1.5-19,.95-22.21,4.33-6.41,18.6-6.15,27.58-5.79C355.05,134.65,354.08,153,350.89,159.71Z" style="fill:#171717;fill-rule:evenodd"/><g style="clip-path:url(#a)"><path d="M339,78.18a2.36,2.36,0,0,0-2.17,2.26c-.56,14.92-6.92-.18-4,26.09,9.21,82.81,36.87,126.27-54.66,142.81a2.4,2.4,0,0,1-2-.59c-.41-.38-.76-.82-.34-1.19,76.45-29.53,67.53-36.57,55.36-111a2.38,2.38,0,0,0-2.1-2c-27.81-2.57-30.14-22.13-3.25-9a2.36,2.36,0,0,0,3.4-2.45c-1.86-12.44-5.22-31.47-4.59-46.4a2.35,2.35,0,0,0-2.91-2.41c-6.69,1.63-16.41,1.25-23.75,2l-.28,0c-19.19,4.35-37.17,1-55-2.4-17-3.28-33.21,9.79-32.78,27.12a20.26,20.26,0,0,1-1.73,8.45,2.33,2.33,0,0,1-1.57,1.34c-28,7.63-9,31.53-17.67,46.26a2.39,2.39,0,0,1-3.27.88c-2.31-1.33-3.3-2.93-6.61-3.81a2.38,2.38,0,0,0-2.28.56C161,169.87,152.94,186.65,185.57,191a2.39,2.39,0,0,1,1.76,1.19c16.44,29.22,37.75,53.3-.08,81.48a2.35,2.35,0,0,0-.79,2.81c12.45,28.88,48.68,44.1,78.49,52.44a2.36,2.36,0,0,0,1.71-.16c18.42-9.36,23.74-29.15,31.47-48.19a2.4,2.4,0,0,0-.52-2.67c-4.65-4.42-8.89-20.15-4.37-27.43a2.39,2.39,0,0,1,3.79-.36c4.26,4.68,3.32,16.25,8.84,19.62,6,4.32,14.27,3.23,22,6,9.79,3.56,20.75,10,28.82,16a2.69,2.69,0,0,1,.39.36c32.06,36.42,52.39,83.22,83.22,120.86a2.34,2.34,0,0,1,.5,1.9c-3.5,19.83-5.84,17.66,2.09,40.93a2.34,2.34,0,0,1,.12.65c2.3,43.13-4.19,71.33-56.48,70.26a2.35,2.35,0,0,0-2.39,2.55c5.91,74,20.88,62.41-59.27,65.87-36.68-.47-83.37,10.12-120.88,2.07a2.63,2.63,0,0,0-.49,0c-30.43.21-59.12.51-89.67-5l-.35-.09c-10.29-3.36-14.07-7-25.51-1.6A2.37,2.37,0,0,1,85.4,590c-11.74-10.69-2.07-29.64-4.76-45.3a195.86,195.86,0,0,1-4-52.18c0-.13,0-.27.05-.4,4.19-18.59,3.45-19-6.44-34.12A2.37,2.37,0,0,0,68.52,457c-23.1-2.67-28.68-15.49-22-34.88a2.44,2.44,0,0,0,.12-.52c21.69-227,189.09-100.07,140-222.25a2.34,2.34,0,0,0-2.85-1.38c-14.32,4.45-32.06-11.15-29.05-25.94,1.3-6.4,7.8-11.42,6.05-19.95,0-.13-.07-.26-.11-.38-11.7-32-9.33-32.34,2.43-63.59a2.37,2.37,0,0,0-.78-2.71c-8.8-6.88-4.76-17.67-3.68-31a2.35,2.35,0,0,1,1.14-1.85c47.11-27.88,99.1-66,169.06-47.75l.14,0c22.68,4.37,69.61,7.86,45.74,35.31a2.36,2.36,0,0,0,.19,3.33c7.38,6.28-5.4,12.58-12.5,16a2.37,2.37,0,0,0-1.32,2.28C361.8,73.17,352.34,77.09,339,78.18Zm-79.71,45.23a27.86,27.86,0,0,1,9.54-.89,4.78,4.78,0,0,1,4.6,4.36c.32,6.17-15.22,1.54-31.65,12.89C242.13,131.29,251.45,125.7,259.32,123.41ZM300.87,164c9.8,1,14.27,8.42,11,17.13-.82,2.19-1.81,9.28-17,7-4.46-.65-13.3-4.52-7.19-9.07,5.1,2.51,20.66,7.69,19.2-5C306,166,301.31,169.31,300.87,164Zm-123.82.45c11.68.07,17.44,1,18.61,11.57a1.72,1.72,0,0,1-.8,1.61,13,13,0,0,1-1.63.94,2.39,2.39,0,0,1-2.53-.4c-10.24-8.93-13.75-7.26-16.52-7.33a1.84,1.84,0,0,1-1.24-3.11,8.84,8.84,0,0,0,1.21-1.66A3.37,3.37,0,0,1,177.05,164.4Zm131.83,36.83c7.78,13.94-16.95,15.85-25.49,13.5-6.1-1.67-6.54-11.54-1.11-9.06C292.33,210.28,303,209.15,308.88,201.23Zm39,213.56c-2.54,4.57-11.48,4.26-14,8.06,11.13,0,17.65,2.9,30,3C361.92,420.15,355.84,416.15,347.91,414.79Zm-139.14,3c-11.73,2.49-27.78,3.71-39,9.07,9.78,46.21,31.73-10.66,121.12,60.45,18.65,11.48,43,14.23,66.07,21.15,108.15,40.66,77.87-112.26,36-79.59,7-.15,12.48.92,17,3C392.5,462.25,253.58,409.89,208.77,417.81Zm-72.07,9.07c-14.6,4.32-50-.21-56.06,17.12,15.12,37.5,36.21,98.53,89.09,84.62,34.8-12.08,75.32-20.19,104.11-38.27-54.27-31.14-37.93-27-102.1-33.25C161.51,433.65,166.46,425.22,136.7,426.88Zm38.23-247.82,5.6,3.64a3.27,3.27,0,1,1-3.27-3.27A3.26,3.26,0,0,1,180.53,182.7Z" style="fill:#171717;fill-rule:evenodd"/></g><path d="M339,78.18a2.36,2.36,0,0,0-2.17,2.26c-.56,14.92-6.92-.18-4,26.09,9.21,82.81,36.87,126.27-54.66,142.81a2.4,2.4,0,0,1-2-.59c-.41-.38-.76-.82-.34-1.19,76.45-29.53,67.53-36.57,55.36-111a2.38,2.38,0,0,0-2.1-2c-27.81-2.57-30.14-22.13-3.25-9a2.36,2.36,0,0,0,3.4-2.45c-1.86-12.44-5.22-31.47-4.59-46.4a2.35,2.35,0,0,0-2.91-2.41c-6.69,1.63-16.41,1.25-23.75,2l-.28,0c-19.19,4.35-37.17,1-55-2.4-17-3.28-33.21,9.79-32.78,27.12a20.26,20.26,0,0,1-1.73,8.45,2.33,2.33,0,0,1-1.57,1.34c-28,7.63-9,31.53-17.67,46.26a2.39,2.39,0,0,1-3.27.88c-2.31-1.33-3.3-2.93-6.61-3.81a2.38,2.38,0,0,0-2.28.56C161,169.87,152.94,186.65,185.57,191a2.39,2.39,0,0,1,1.76,1.19c16.44,29.22,37.75,53.3-.08,81.48a2.35,2.35,0,0,0-.79,2.81c12.45,28.88,48.68,44.1,78.49,52.44a2.36,2.36,0,0,0,1.71-.16c18.42-9.36,23.74-29.15,31.47-48.19a2.4,2.4,0,0,0-.52-2.67c-4.65-4.42-8.89-20.15-4.37-27.43a2.39,2.39,0,0,1,3.79-.36c4.26,4.68,3.32,16.25,8.84,19.62,6,4.32,14.27,3.23,22,6,9.79,3.56,20.75,10,28.82,16a2.69,2.69,0,0,1,.39.36c32.06,36.42,52.39,83.22,83.22,120.86a2.34,2.34,0,0,1,.5,1.9c-3.5,19.83-5.84,17.66,2.09,40.93a2.34,2.34,0,0,1,.12.65c2.3,43.13-4.19,71.33-56.48,70.26-1.39,0-1.66,1.37-2.39,2.55-10.85,17.58-30,23.94-77,38-35.14,10.51-161,23.09-188.41,8.56-8-4.24-35.47-15.4-38.16-31.06a195.86,195.86,0,0,1-4-52.18c0-.13,0-.27.05-.4,4.19-18.59,3.45-19-6.44-34.12A2.37,2.37,0,0,0,68.52,457c-23.1-2.67-28.68-15.49-22-34.88a2.44,2.44,0,0,0,.12-.52c21.69-227,189.09-100.07,140-222.25a2.34,2.34,0,0,0-2.85-1.38c-14.32,4.45-32.06-11.15-29.05-25.94,1.3-6.4,7.8-11.42,6.05-19.95,0-.13-.07-.26-.11-.38-11.7-32-9.33-32.34,2.43-63.59a2.37,2.37,0,0,0-.78-2.71c-8.8-6.88-4.76-17.67-3.68-31a2.35,2.35,0,0,1,1.14-1.85c47.11-27.88,99.1-66,169.06-47.75l.14,0c22.68,4.37,69.61,7.86,45.74,35.31a2.36,2.36,0,0,0,.19,3.33c7.38,6.28-5.4,12.58-12.5,16a2.37,2.37,0,0,0-1.32,2.28C361.8,73.17,352.34,77.09,339,78.18Zm-79.71,45.23a27.86,27.86,0,0,1,9.54-.89,4.78,4.78,0,0,1,4.6,4.36c.32,6.17-15.22,1.54-31.65,12.89C242.13,131.29,251.45,125.7,259.32,123.41ZM300.87,164c9.8,1,14.27,8.42,11,17.13-.82,2.19-1.81,9.28-17,7-4.46-.65-13.3-4.52-7.19-9.07,5.1,2.51,20.66,7.69,19.2-5C306,166,301.31,169.31,300.87,164Zm-123.82.45c11.68.07,17.44,1,18.61,11.57a1.72,1.72,0,0,1-.8,1.61,13,13,0,0,1-1.63.94,2.39,2.39,0,0,1-2.53-.4c-10.24-8.93-13.75-7.26-16.52-7.33a1.84,1.84,0,0,1-1.24-3.11,8.84,8.84,0,0,0,1.21-1.66A3.37,3.37,0,0,1,177.05,164.4Zm131.83,36.83c7.78,13.94-16.95,15.85-25.49,13.5-6.1-1.67-6.54-11.54-1.11-9.06C292.33,210.28,303,209.15,308.88,201.23Zm39,213.56c-2.54,4.57-11.48,4.26-14,8.06,11.13,0,17.65,2.9,30,3C361.92,420.15,355.84,416.15,347.91,414.79Zm-139.14,3c-11.73,2.49-27.78,3.71-39,9.07,9.78,46.21,31.73-10.66,121.12,60.45,18.65,11.48,43,14.23,66.07,21.15,108.15,40.66,77.87-112.26,36-79.59,7-.15,12.48.92,17,3C392.5,462.25,253.58,409.89,208.77,417.81Zm-72.07,9.07c-14.6,4.32-50-.21-56.06,17.12,15.12,37.5,36.21,98.53,89.09,84.62,34.8-12.08,75.32-20.19,104.11-38.27-54.27-31.14-37.93-27-102.1-33.25C161.51,433.65,166.46,425.22,136.7,426.88Zm38.23-247.82,5.6,3.64a3.27,3.27,0,1,1-3.27-3.27A3.26,3.26,0,0,1,180.53,182.7Z" style="fill:#171717;fill-rule:evenodd"/><ellipse cx="262.43" cy="151.01" rx="4.8" ry="8.91" style="fill:#171717"/><ellipse cx="320.25" cy="149.25" rx="4.8" ry="8.91" style="fill:#171717"/></svg>